<svg xmlns="http://www.w3.org/2000/svg" id="_图层_1" data-name="图层 1" viewBox="0 0 600 600"><defs><style>.cls-1{fill:#035679}</style></defs><path d="M252.05 449.04v10.82h-22.97v-10.82H214.8v30.25h14.28v-10.82h22.97v10.82h14.29v-30.25h-14.29zM333.57 449.04v8.55h18.8v21.7h13.95v-21.7h18.79v-8.55h-51.54zM292.78 449.04h14.35v30.25h-14.35zM341.56 413.47c.53.7 1.16 1.31 1.86 1.78.66.46 1.33.78 2.13 1.01.83.24 1.73.37 2.65.37s1.76-.12 2.58-.35a7.01 7.01 0 0 0 2.11-.98 8.64 8.64 0 0 0 1.88-1.75c.49-.61.92-1.33 1.26-2.15.39-.92.68-1.93.88-3.1.22-1.28.34-2.73.34-4.29 0-1.32-.11-2.56-.32-3.7-.2-1.04-.48-1.97-.86-2.83-.34-.78-.76-1.49-1.24-2.12a8.383 8.383 0 0 0-1.87-1.8c-.67-.46-1.33-.79-2.13-1.01-.82-.25-1.71-.37-2.63-.37s-1.77.12-2.58.35c-.79.22-1.46.53-2.13.98a8.97 8.97 0 0 0-1.89 1.76c-.48.61-.91 1.32-1.26 2.12-.38.88-.67 1.86-.87 2.97-.22 1.21-.34 2.58-.34 4.04s.11 2.75.32 3.95c.2 1.09.48 2.06.86 2.96.34.8.76 1.52 1.24 2.15m1.22-9.03c0-1.48.11-2.81.32-3.95.18-1.03.45-1.88.81-2.61.32-.63.7-1.17 1.14-1.58.42-.39.86-.66 1.38-.86.54-.2 1.14-.29 1.76-.29h.03c.55 0 1.1.08 1.59.25.48.16.9.39 1.3.72.43.37.81.81 1.13 1.34s0 .01 0 .01c.28.47.52 1.01.72 1.61.22.65.39 1.36.49 2.16.13.86.18 1.82.19 2.83v.03c0 1.52-.11 2.9-.32 4.09-.19 1.06-.46 1.94-.83 2.7-.32.65-.7 1.2-1.15 1.64-.42.39-.86.67-1.39.87-.53.2-1.12.29-1.73.3h-.03c-.62 0-1.22-.1-1.76-.29-.53-.19-.97-.46-1.38-.86-.44-.41-.83-.94-1.14-1.57-.37-.73-.63-1.58-.81-2.6-.21-1.14-.32-2.46-.32-3.92ZM249.11 395.96h-.01c-.26.18-.61.34-1.03.47-.46.15-1 .27-1.64.37-.68.1-1.48.18-2.37.21v2.46h6.33v16.64h3.62v-23.4h-2.82c-.18.55-.38 1.07-.6 1.51-.22.41-.45.75-.71 1.05-.24.27-.49.5-.76.67ZM320.15 402.12c-.21.25-.53.53-.92.81-.42.32-.96.65-1.61 1.01-.71.39-1.53.81-2.46 1.26-1.17.56-2.23 1.12-3.15 1.69-.86.52-1.57 1.03-2.19 1.55-.56.48-1.03.96-1.38 1.43-.37.47-.68 1-.95 1.57-.29.63-.51 1.31-.67 2.06-.19.81-.29 1.69-.32 2.62h18.28v-2.94h-14.4v-.02c.11-.34.25-.67.41-.99.15-.3.34-.58.56-.86.21-.27.46-.53.73-.77s0-.01 0-.01c.25-.22.6-.48 1.04-.76.48-.31 1.05-.64 1.77-1.02.76-.4 1.65-.84 2.63-1.3h.01c.94-.44 1.8-.89 2.55-1.33.72-.42 1.32-.82 1.85-1.24.48-.38.91-.77 1.25-1.14.34-.39.65-.81.9-1.26.25-.46.43-.93.55-1.46.13-.56.2-1.15.2-1.76 0-.77-.11-1.49-.3-2.15a5.57 5.57 0 0 0-.81-1.66c-.36-.5-.8-.95-1.3-1.35-.5-.39-1.06-.72-1.67-1-.64-.29-1.31-.5-2.05-.65a13.91 13.91 0 0 0-5.35.02c-.77.17-1.46.41-2.11.74-.62.32-1.2.71-1.69 1.16-.48.44-.9.94-1.24 1.51-.37.63-.65 1.31-.84 2.11-.2.86-.32 1.82-.32 2.86h3.62c0-.7.07-1.34.2-1.92.13-.51.29-.96.53-1.37.21-.38.46-.71.76-1s0-.01 0-.01c.32-.3.67-.56 1.05-.77.39-.21.81-.37 1.26-.47.48-.12 1.01-.18 1.55-.18h.03c.51 0 1 .05 1.47.15.42.08.81.22 1.19.39.35.17.68.37.97.61h.01v.01c.3.25.55.53.77.83s.36.62.47.98c.11.37.16.77.17 1.19v.02c0 .34-.04.69-.12 1.01-.08.32-.2.62-.35.91-.16.29-.36.59-.59.86s0 .01 0 .01ZM281.01 413.47a3.665 3.665 0 0 1-2.11-1.57c-.28-.44-.5-.95-.65-1.54h-3.62c.12.9.34 1.71.65 2.42.27.64.62 1.19 1.07 1.67.41.46.88.83 1.43 1.14.58.33 1.22.58 1.94.74.83.2 1.73.29 2.72.29s1.97-.13 2.86-.4c.85-.25 1.59-.6 2.29-1.1.76-.53 1.43-1.19 2.01-1.97.51-.69.95-1.47 1.32-2.34.41-.96.71-2 .92-3.17.23-1.28.35-2.68.35-4.18 0-1.39-.11-2.68-.34-3.82-.2-1.04-.5-1.94-.89-2.76a7.98 7.98 0 0 0-1.26-1.92c-.54-.6-1.17-1.12-1.85-1.54a7.97 7.97 0 0 0-2.18-.91c-.86-.22-1.78-.34-2.73-.34s-1.86.1-2.69.29c-.77.18-1.45.44-2.09.79-.63.34-1.2.77-1.7 1.25-.49.48-.91 1.03-1.26 1.61-.35.6-.61 1.22-.79 1.92-.2.74-.3 1.54-.3 2.39s.1 1.62.3 2.35c.18.66.43 1.25.78 1.8.33.53.73 1.01 1.2 1.43.48.44 1.04.83 1.64 1.14.6.31 1.24.54 1.94.7.74.17 1.55.25 2.4.25 1 0 1.93-.13 2.77-.37a5.98 5.98 0 0 0 2.04-1c.62-.46 1.17-1.03 1.6-1.7s0-.01 0-.01h.01c-.2 1.21-.43 2.29-.68 3.24-.24.86-.49 1.59-.77 2.21-.25.55-.53 1.03-.81 1.38s0 .01 0 .01c-.32.4-.68.74-1.09 1.01-.4.27-.79.45-1.26.58-.47.13-.98.2-1.52.2h-.02c-.58 0-1.14-.07-1.61-.22m7.01-13.11c0 .54-.07 1.03-.19 1.48-.12.42-.28.8-.51 1.15-.21.34-.47.65-.77.92h-.01v.01c-.32.28-.67.52-1.04.71-.39.2-.79.34-1.22.44-.46.11-.96.15-1.46.15h-.03c-.51 0-1.01-.06-1.46-.16-.44-.1-.81-.25-1.19-.44-.37-.2-.71-.45-1.02-.74s0-.01 0-.01c-.28-.27-.52-.58-.72-.92-.2-.37-.37-.76-.47-1.19-.12-.47-.18-.98-.18-1.53v-.02c0-.55.06-1.07.18-1.54.11-.44.27-.83.49-1.2.2-.34.44-.65.73-.92h.01v-.01c.3-.28.65-.53 1.03-.73.37-.2.77-.35 1.2-.45.45-.11.94-.16 1.45-.16h.03c.51 0 1 .06 1.47.18a4.644 4.644 0 0 1 2.26 1.3c.3.32.55.66.76 1.03.22.38.37.77.48 1.2.11.46.18.94.18 1.45ZM67.01 296.6h23.34c.05 1.63.12 3.28.21 4.92v.48h12.68l-.03-.54c-.32-5.64-.39-11.35-.23-16.98v-.52H79.66c.19-6.75.67-13.44 1.42-19.89.77-6.65 1.86-13.3 3.24-19.77 1.37-6.47 3.08-12.99 5.08-19.37 1.95-6.21 4.23-12.51 6.8-18.75l21.32 9.49.2-.48c2.04-4.97 4.26-9.85 6.62-14.52 2.37-4.68 4.94-9.3 7.66-13.73 2.72-4.44 5.67-8.83 8.76-13.06 3.08-4.21 6.42-8.42 9.93-12.5l.34-.39-18.13-14.69c4.39-5.12 8.97-10.02 13.61-14.57 4.8-4.68 9.82-9.17 14.96-13.33 5.15-4.16 10.57-8.14 16.15-11.86 5.41-3.59 11.16-7.06 17.08-10.29l10.59 20.79.46-.25c4.72-2.58 9.52-4.98 14.29-7.12 4.78-2.14 9.7-4.11 14.6-5.85 4.89-1.73 9.96-3.29 15.03-4.63 5.05-1.34 10.29-2.51 15.58-3.47l.51-.09-4.85-22.83c6.64-1.21 13.28-2.14 19.76-2.75 6.66-.62 13.4-.94 20-.94s13.35.32 20.01.94c6.47.61 13.11 1.54 19.75 2.75l-4.84 22.83.51.09c5.29.96 10.53 2.13 15.59 3.47 5.07 1.34 10.12 2.9 15.03 4.63 4.89 1.73 9.81 3.7 14.6 5.85 4.76 2.14 9.57 4.54 14.29 7.12l.45.25 10.6-20.79c5.93 3.23 11.67 6.7 17.09 10.29 5.57 3.71 11 7.7 16.15 11.86 5.13 4.16 10.17 8.65 14.95 13.33 4.65 4.55 9.23 9.44 13.62 14.57l-18.14 14.69.34.39c3.51 4.08 6.85 8.29 9.93 12.5 3.1 4.23 6.05 8.63 8.76 13.06 2.72 4.43 5.29 9.05 7.65 13.73 2.37 4.67 4.59 9.56 6.63 14.52l.2.48 21.32-9.49c2.57 6.23 4.86 12.54 6.8 18.75 2 6.39 3.71 12.91 5.09 19.37 1.38 6.47 2.46 13.12 3.24 19.77.74 6.46 1.22 13.15 1.41 19.89h-23.33v.52c.18 5.65.1 11.37-.22 16.98l-.03.54h12.67l.02-.48c.09-1.61.16-3.26.2-4.92h23.35v-.49c.92-36.5-6.89-73.23-22.57-106.2l-.21-.44-21.32 9.49c-6.21-12.91-13.46-24.73-22.13-36.12l18.13-14.69-.29-.39c-22.26-28.94-51.44-52.58-84.38-68.33l-.44-.21-10.6 20.79c-12.95-6.12-26.01-10.74-39.94-14.14l4.85-22.83-.48-.11c-35.52-8.48-73.06-8.48-108.57 0l-.48.11 4.85 22.83c-13.91 3.39-26.98 8.02-39.94 14.14l-10.59-20.79-.45.21c-32.93 15.76-62.11 39.39-84.37 68.33l-.3.39 18.14 14.69c-8.69 11.4-15.93 23.22-22.15 36.12l-21.32-9.49-.2.44c-15.69 32.98-23.49 69.7-22.57 106.2v.49Z" class="cls-1"/><path d="m463.06 301.45-.04.54h12.68l.03-.47c.24-3.74.35-7.52.35-11.25 0-96.73-78.69-175.43-175.42-175.43s-175.42 78.69-175.43 175.43c0 3.75.12 7.53.36 11.25l.03.47h12.68l-.04-.54c-.26-3.7-.39-7.46-.39-11.19 0-11.04 1.12-22.07 3.31-32.79 2.14-10.45 5.33-20.73 9.49-30.56 4.08-9.65 9.13-18.95 15-27.65 5.83-8.62 12.52-16.72 19.88-24.09a163.61 163.61 0 0 1 24.08-19.88c8.71-5.88 18.02-10.93 27.66-15.01 9.82-4.15 20.1-7.34 30.55-9.49 21.46-4.39 44.16-4.39 65.62 0 10.45 2.14 20.73 5.34 30.56 9.49 9.64 4.08 18.94 9.13 27.65 15.01a163.69 163.69 0 0 1 24.09 19.88c7.36 7.37 14.06 15.47 19.88 24.09a162.208 162.208 0 0 1 24.49 58.21c2.19 10.72 3.31 21.75 3.31 32.8 0 3.72-.13 7.48-.39 11.18M478.27 442.24l.32-.38c15.81-18.56 28.09-38.5 37.55-60.99l.29-.7h-13.77l-.13.3a220.4 220.4 0 0 1-11.91 22.97c-4.27 7.18-9.06 14.24-14.23 21.01l-18.14-14.68-.31.41c-2.89 3.79-5.95 7.51-9.08 11.06-2.42 2.73-4.97 5.41-7.58 8.05h-35.01c17.63-13.64 31.51-29.22 43.05-48.35l.47-.77h-14.94l-.15.23c-3.33 5.01-6.87 9.81-10.53 14.23-3.67 4.44-7.6 8.71-11.68 12.66-4.07 3.95-8.45 7.74-13.02 11.27-4.54 3.52-9.44 6.9-14.56 10.08l-1.35.64h-72.43l-10.47 8-10.48-8h-72.42l-1.34-.64c-5.13-3.18-10.03-6.56-14.57-10.08-4.56-3.53-8.95-7.32-13.02-11.27-4.08-3.95-8.02-8.21-11.68-12.66-3.66-4.42-7.2-9.22-10.54-14.23l-.15-.23h-14.94l.47.77c11.54 19.13 25.42 34.71 43.05 48.35h-35.02c-2.6-2.63-5.15-5.32-7.58-8.05-3.13-3.55-6.19-7.27-9.08-11.06l-.32-.41-18.13 14.68c-5.17-6.77-9.96-13.83-14.23-21.01-4.35-7.31-8.36-15.03-11.9-22.97l-.13-.3H84.88l.29.7c9.45 22.48 21.74 42.43 37.55 60.99l.32.38 18.14-14.69c2.11 2.46 4.33 4.88 6.58 7.26l-25.31 11.34-31.69 79.22h144.18c-3.78 6.86-7.12 12.94-10.74 19.5h152.89c-3.61-6.56-6.96-12.64-10.74-19.5h144.18l-31.69-79.22-25.31-11.34c2.25-2.38 4.47-4.8 6.58-7.26l18.14 14.69Zm-188.8-10.6 11.19 8.55 11.19-8.55 123.97-.05 22.24 60.52H312.67c3.03 6 5.77 11.41 8.71 17.2h-41.45c2.93-5.79 5.67-11.21 8.71-17.2H143.26l22.24-60.52 123.96.05Zm178.21 12.03 27.77 72.07H350.84c3.61 7.1 6.85 13.49 10.39 20.46H240.1c3.54-6.97 6.78-13.36 10.38-20.46h-144.6l27.77-72.07 10.78-4.83-24.91 68.71h145.92c-3.43 6.59-6.22 11.96-9.35 17.97h89.17c-3.12-6.02-5.92-11.38-9.35-17.97h145.92l-24.9-68.71 10.77 4.83Zm-13.55-6.07 24.8 68.38H332.75c3.41 6.52 6.19 11.84 9.13 17.48h-82.45c2.94-5.64 5.73-10.97 9.13-17.48H122.4l24.8-68.38 13.4-6h2.81c-7.48 20.31-15.44 41.93-23.04 62.52h144.91c-3.02 6.05-5.73 11.47-8.75 17.51h48.26c-3.02-6.04-5.73-11.47-8.75-17.51h144.91c-7.59-20.59-15.55-42.21-23.04-62.52h2.81l13.41 6ZM336.37 349.55h5.6v7.89h-5.6zM320.87 349.55h5.6v7.89h-5.6zM258.87 349.55h5.6v7.89h-5.6zM289.87 349.55h5.6v7.89h-5.6zM274.36 349.55h5.6v7.89h-5.6zM305.36 349.55h5.6v7.89h-5.6zM283.44 322.82h3.7v5.59h-3.7zM313.68 313.37h3.7v5.6h-3.7z" class="cls-1"/><path d="M313.68 285.01h3.7v5.6h-3.7zM306.12 294.46h3.7v5.6h-3.7zM306.12 285.01h3.7v5.6h-3.7zM313.68 322.82h3.7v5.59h-3.7zM306.12 303.91h3.7v5.6h-3.7zM283.44 313.37h3.7v5.6h-3.7zM313.68 294.46h3.7v5.6h-3.7zM291 313.37h3.71v5.6H291zM291 294.46h3.71v5.6H291zM291 303.91h3.71v5.6H291zM291 322.82h3.71v5.59H291zM283.44 303.91h3.7v5.6h-3.7zM283.44 285.01h3.7v5.6h-3.7zM283.44 294.46h3.7v5.6h-3.7zM298.56 294.46h3.7v5.6h-3.7zM291 285.01h3.71v5.6H291zM298.56 285.01h3.7v5.6h-3.7zM306.12 322.82h3.7v5.59h-3.7zM306.12 313.37h3.7v5.6h-3.7zM298.56 322.82h3.7v5.59h-3.7zM298.56 313.37h3.7v5.6h-3.7zM298.56 303.91h3.7v5.6h-3.7zM313.68 303.91h3.7v5.6h-3.7zM298.56 231.33h3.7v5.59h-3.7zM298.56 240.77h3.7v5.6h-3.7zM306.12 240.77h3.7v5.6h-3.7zM291 240.77h3.71v5.6H291zM291 231.33h3.71v5.59H291zM298.56 262.04h3.7v5.6h-3.7zM306.13 231.33h3.7v5.59h-3.7zM306.13 262.04h3.7v5.6h-3.7zM291 262.04h3.71v5.6H291zM300.64 172.27l.03.27 6.08 4.42-2.41-7.4-.02-.04.01-.01-.01-.02.05-.01 6.3-4.58h-7.79l-.05.02v-.02h-.01v-.05l-2.41-7.4-2.4 7.4v.05h-.02l-.01.02-.05-.02h-7.78l6.3 4.58.05.01-.01.02.02.01-.04.04-2.4 7.4 6.09-4.42.02-.27h.46zM502.67 306.88l-20.37 7.55v.02H446.14l-14.07 3.77v1.82h138.34v-1.82l-14.07-3.77h-33.29v-.02l-20.38-7.55zM168.75 318.22l-14.07-3.77H118.54v-.02l-20.39-7.55-20.38 7.55v.02H44.49l-14.08 3.77v1.82h138.34v-1.82zM238.07 317.33h3.71v5.6h-3.71zM245.63 317.33h3.7v5.6h-3.7zM260.76 317.33h3.71v5.6h-3.71zM253.2 317.33h3.7v5.6h-3.7zM192.71 317.33h3.7v5.6h-3.7zM222.95 317.33h3.7v5.6h-3.7zM207.82 317.33h3.71v5.6h-3.71zM215.39 317.33h3.7v5.6h-3.7zM230.51 317.33h3.71v5.6h-3.71zM200.27 317.33h3.7v5.6h-3.7zM245.63 325.9h3.7v5.6h-3.7zM238.07 325.9h3.71v5.6h-3.71zM192.71 325.9h3.7v5.6h-3.7zM207.82 325.9h3.71v5.6h-3.71zM222.95 325.9h3.7v5.6h-3.7zM215.39 325.9h3.7v5.6h-3.7zM230.51 325.9h3.71v5.6h-3.71zM200.27 325.9h3.7v5.6h-3.7zM245.63 343.02h3.7v5.6h-3.7zM238.07 343.02h3.71v5.6h-3.71zM207.82 343.02h3.71v5.6h-3.71zM200.27 343.02h3.7v5.6h-3.7zM192.71 343.02h3.7v5.6h-3.7zM222.95 343.02h3.7v5.6h-3.7zM215.39 343.02h3.7v5.6h-3.7zM230.51 343.02h3.71v5.6h-3.71zM245.63 351.59h3.7v5.6h-3.7zM238.07 351.59h3.71v5.6h-3.71zM207.82 351.59h3.71v5.6h-3.71zM200.27 351.59h3.7v5.6h-3.7zM192.71 351.59h3.7v5.6h-3.7zM222.95 351.59h3.7v5.6h-3.7zM215.39 351.59h3.7v5.6h-3.7zM230.51 351.59h3.71v5.6h-3.71zM245.63 334.46h3.7v5.6h-3.7zM238.07 334.46h3.71v5.6h-3.71zM200.27 334.46h3.7v5.6h-3.7zM192.71 334.46h3.7v5.6h-3.7zM222.95 334.46h3.7v5.6h-3.7zM207.82 334.46h3.71v5.6h-3.71zM215.39 334.46h3.7v5.6h-3.7zM230.51 334.46h3.71v5.6h-3.71zM238.07 308.77h3.71v5.6h-3.71zM260.76 308.77h3.71v5.6h-3.71zM245.63 308.77h3.7v5.6h-3.7zM253.2 308.77h3.7v5.6h-3.7zM230.51 308.77h3.71v5.6h-3.71zM192.71 308.77h3.7v5.6h-3.7zM215.39 308.77h3.7v5.6h-3.7zM200.27 308.77h3.7v5.6h-3.7zM222.95 308.77h3.7v5.6h-3.7zM207.82 308.77h3.71v5.6h-3.71zM168.13 334.82h3.7v5.6h-3.7zM168.13 344.27h3.7v5.6h-3.7zM65.1 342.04h3.71v5.6H65.1zM57.55 342.04h3.7v5.6h-3.7zM49.98 342.04h3.7v5.6h-3.7zM42.42 342.04h3.71v5.6h-3.71zM57.55 332.91h3.7v5.59h-3.7zM65.1 332.91h3.71v5.59H65.1zM49.98 332.91h3.7v5.59h-3.7zM42.42 332.91h3.71v5.59h-3.71zM107.67 342.04h3.7v5.6h-3.7zM100.11 342.04h3.7v5.6h-3.7zM92.55 342.04h3.7v5.6h-3.7zM84.98 342.04h3.71v5.6h-3.71zM100.11 332.91h3.7v5.59h-3.7zM107.67 332.91h3.7v5.59h-3.7zM92.55 332.91h3.7v5.59h-3.7zM84.98 332.91h3.71v5.59h-3.71zM135.99 332.91h3.71v5.59h-3.71zM143.55 332.91h3.7v5.59h-3.7zM128.43 332.91h3.7v5.59h-3.7zM151.11 332.91h3.7v5.59h-3.7zM128.43 342.04h3.7v5.6h-3.7zM135.99 342.04h3.71v5.6h-3.71zM143.55 342.04h3.7v5.6h-3.7zM151.11 342.04h3.7v5.6h-3.7zM65.1 351.18h3.71v5.6H65.1zM57.55 351.18h3.7v5.6h-3.7zM49.98 351.18h3.7v5.6h-3.7zM42.42 351.18h3.71v5.6h-3.71zM107.67 351.18h3.7v5.6h-3.7zM100.11 351.18h3.7v5.6h-3.7zM92.55 351.18h3.7v5.6h-3.7zM84.98 351.18h3.71v5.6h-3.71zM128.43 351.18h3.7v5.6h-3.7zM135.99 351.18h3.71v5.6h-3.71zM143.55 351.18h3.7v5.6h-3.7zM151.11 351.18h3.7v5.6h-3.7zM358.98 317.33h3.71v5.6h-3.71zM351.42 317.33h3.71v5.6h-3.71zM336.29 317.33H340v5.6h-3.71zM343.86 317.33h3.7v5.6h-3.7zM404.35 317.33h3.7v5.6h-3.7zM374.1 317.33h3.7v5.6h-3.7zM389.23 317.33h3.7v5.6h-3.7zM381.66 317.33h3.71v5.6h-3.71zM366.54 317.33h3.7v5.6h-3.7zM396.79 317.33h3.7v5.6h-3.7zM351.42 325.89h3.71v5.6h-3.71zM358.98 325.89h3.71v5.6h-3.71zM404.35 325.89h3.7v5.6h-3.7zM389.23 325.89h3.7v5.6h-3.7zM374.1 325.89h3.7v5.6h-3.7zM381.66 325.89h3.71v5.6h-3.71zM366.54 325.89h3.7v5.6h-3.7zM396.79 325.89h3.7v5.6h-3.7zM351.42 343.02h3.71v5.6h-3.71zM358.98 343.02h3.71v5.6h-3.71zM389.23 343.02h3.7v5.6h-3.7zM396.79 343.02h3.7v5.6h-3.7zM404.35 343.02h3.7v5.6h-3.7zM374.1 343.02h3.7v5.6h-3.7zM381.66 343.02h3.71v5.6h-3.71zM366.54 343.02h3.7v5.6h-3.7zM351.42 351.58h3.71v5.6h-3.71zM358.98 351.58h3.71v5.6h-3.71zM389.23 351.58h3.7v5.6h-3.7zM396.79 351.58h3.7v5.6h-3.7zM404.35 351.58h3.7v5.6h-3.7zM374.1 351.58h3.7v5.6h-3.7zM381.66 351.58h3.71v5.6h-3.71zM366.54 351.58h3.7v5.6h-3.7zM351.42 334.45h3.71v5.6h-3.71zM358.98 334.45h3.71v5.6h-3.71zM396.79 334.45h3.7v5.6h-3.7zM404.35 334.45h3.7v5.6h-3.7zM374.1 334.45h3.7v5.6h-3.7zM389.23 334.45h3.7v5.6h-3.7zM381.66 334.45h3.71v5.6h-3.71zM366.54 334.45h3.7v5.6h-3.7zM358.98 308.77h3.71v5.6h-3.71zM336.29 308.77H340v5.6h-3.71zM351.42 308.77h3.71v5.6h-3.71zM343.86 308.77h3.7v5.6h-3.7zM366.54 308.77h3.7v5.6h-3.7zM404.35 308.77h3.7v5.6h-3.7zM381.66 308.77h3.71v5.6h-3.71zM396.79 308.77h3.7v5.6h-3.7zM374.1 308.77h3.7v5.6h-3.7zM389.23 308.77h3.7v5.6h-3.7zM428.92 334.81h3.7v5.59h-3.7zM428.92 344.26h3.7v5.6h-3.7zM531.94 342.03h3.7v5.6h-3.7zM539.5 342.03h3.7v5.6h-3.7zM547.07 342.03h3.7v5.6h-3.7zM554.63 342.03h3.71v5.6h-3.71zM539.5 332.9h3.7v5.6h-3.7zM531.94 332.9h3.7v5.6h-3.7zM547.07 332.9h3.7v5.6h-3.7zM554.63 332.9h3.71v5.6h-3.71zM489.39 342.03h3.7v5.6h-3.7zM496.95 342.03h3.7v5.6h-3.7zM504.51 342.03h3.7v5.6h-3.7zM512.06 342.03h3.7v5.6h-3.7zM496.95 332.9h3.7v5.6h-3.7zM489.39 332.9h3.7v5.6h-3.7zM504.51 332.9h3.7v5.6h-3.7zM512.06 332.9h3.7v5.6h-3.7zM461.06 332.9h3.7v5.6h-3.7zM453.49 332.9h3.71v5.6h-3.71zM468.62 332.9h3.7v5.6h-3.7zM445.94 332.9h3.7v5.6h-3.7zM468.62 342.03h3.7v5.6h-3.7zM461.06 342.03h3.7v5.6h-3.7zM453.49 342.03h3.71v5.6h-3.71zM445.94 342.03h3.7v5.6h-3.7zM531.94 351.17h3.7v5.6h-3.7zM539.5 351.17h3.7v5.6h-3.7zM547.07 351.17h3.7v5.6h-3.7zM554.63 351.17h3.71v5.6h-3.71zM489.39 351.17h3.7v5.6h-3.7zM496.95 351.17h3.7v5.6h-3.7zM504.51 351.17h3.7v5.6h-3.7zM512.06 351.17h3.7v5.6h-3.7zM468.62 351.17h3.7v5.6h-3.7zM461.06 351.17h3.7v5.6h-3.7zM453.49 351.17h3.71v5.6h-3.71zM445.94 351.17h3.7v5.6h-3.7zM185.29 291.09l-14.08 3.77v1.82h100.85v-5.59h-86.77zM429.61 296.68v-1.83l-14.07-3.76h-86.81v5.59h100.88zM321.11 223.31v-1.9h-41.45v1.84l3.75 3.76h34l3.7-3.7zM324.95 252.53v-1.84h-49.07v1.84l3.73 3.72h41.61l3.73-3.72zM275.8 278.99h52.95l3.76-3.75v-1.84h-11.34v-.06h-3.7v.06h-34.11v-.06h-3.7v.06h-11.34v1.84l3.75 3.75h3.73z" class="cls-1"/><path d="M302.28 213.76h-.03l-.01-.03-1.24-40.98-.54-.36-.04-.05-.01.02-.02-.02-.02.05-.57.37-1.22 40.97v.03h-2.06l-1.81 7.66h11.41l-1.81-7.66h-2.03z" class="cls-1"/><path d="M300.4 172.35h.03l.03.04.2.15-.02-.27h-.46l-.02.27.21-.15.03-.04zM568.79 361.3h-1.88v-37.41H425.14v3.71h11.42v29.86h.01l-.01.03v.03h-.07v-.02c-3.32-2.48-7.95-2.48-11.27 0v.02h-.07V365c.02-3.13 2.58-5.67 5.71-5.67s5.68 2.54 5.7 5.67v7.56H568.8V361.3Zm-41.58-33.7h35.99v33.7h-35.99v-33.7Zm-45.37 0h41.66v33.7h-41.66v-33.7Zm-41.58 0h37.89v33.7h-37.89v-33.7Zm124.83 41.26H440.26v-3.85h124.83v3.85ZM175.67 357.51h-.04v-.02c-3.32-2.48-7.95-2.48-11.27 0v.02h-.07v-.02l-.02-.02h.02V327.6h11.42v-3.71H33.92v37.4h-1.9v11.26h132.25v-7.56c.02-3.12 2.58-5.67 5.71-5.67s5.68 2.54 5.7 5.67v-7.48h-.02ZM77.32 327.6h41.66v33.7H77.32v-33.7Zm-39.7 0h35.99v33.7H37.62v-33.7Zm122.95 37.47v3.78H35.74v-3.86h124.83v.08Zm0-3.77h-37.88v-33.7h37.88v33.7ZM283.37 257.52h-.04v-2.45h-3.71l.02.02h.02v.03l.02.02-.02.01v19.38h3.71v-17.01zM283.44 252.11h3.7v-25.9l-3.7.81v.01l.01.02-.01-.8v25.86z" class="cls-1"/><path d="m425.13 357.49-.02-.02h.02v-56.94h-96.4V278.99h-3.7v55.43H275.8v-55.43h-3.71v.02h.02l-.02.04v21.49h-96.4v56.92h.01l-.01.04v15.07h47.25v.07h-.02l-3.76 3.76v.02h-.03v.02l-.02-.02h-5.32l-3.71 3.71h10.59l15.1-15.1V365h17.4v.03h.01l-.01.03v.02h-.02l-15.05 15.05h124.57l-15.05-15.05h-.02v-.02h-.02l.02-.03V365h17.41v.03l15.1 15.1h10.59l-3.7-3.71h-5.32l-.02.02v-.02h-.03v-.02l-3.76-3.76h-.02v-.02h-.02l.02-.04v-.02h47.25v-15.07Zm-88.76-15.5h-71.91v-3.85h71.91v3.85Zm-105.86 23.06v.02h-.02l-3.76 3.76v.02h-47.34v-3.86h51.11v.03h.02l-.02.03Zm119.36 7.51h.04v.02l3.76 3.76h.01v.02h.01l-.01.03v.02h-.01v.02l-.04-.02H247.16v.02l-.04-.02h-.02v-.02h-.01l.01-.03v-.02h.02l3.76-3.76v-.02h98.97Zm-3.75-3.78h.02v.02h.02l-.02.04v.02h-91.45v-.07h.02l3.76-3.76V365H342.36v.03l3.76 3.76Zm75.31.08H374.1v-.02l-3.76-3.76h-.02v-.02h-.01l.01-.03V365h51.11v3.86Zm0-7.56h-13.31l-3.7-.01-3.85.01-3.71-.01-3.85.01-3.7-.01-3.86.01-3.7-.01-3.85.01-3.71-.01-3.85.01-3.71-.01-3.85.01-3.71-.01-3.86.01-3.7-.01-172.09.01v-57.06h92.7v30.18H257v3.71h3.78v3.85H257v3.7h86.87v-3.7h-3.78v-3.85h3.78v-3.71h-15.12v-30.18h92.7v57.06ZM317.39 227.02l-3.71-.81v25.91h3.71v-24.43l-.02-.64.02 1.42v-1.45zM321.17 255.15l-.02-.01.02-.02v-.02h.02l.03-.03h-3.76v.03h.01v19.43h3.7v-19.38z" class="cls-1"/><path d="M272.06 291.09h.04v5.59h-.04z" class="cls-1"/></svg>